<?xml version="1.0" encoding="UTF-8" standalone="no"?>
<svg
   xmlns:dc="http://purl.org/dc/elements/1.1/"
   xmlns:cc="http://creativecommons.org/ns#"
   xmlns:rdf="http://www.w3.org/1999/02/22-rdf-syntax-ns#"
   xmlns:svg="http://www.w3.org/2000/svg"
   xmlns="http://www.w3.org/2000/svg"
   xmlns:sodipodi="http://sodipodi.sourceforge.net/DTD/sodipodi-0.dtd"
   xmlns:inkscape="http://www.inkscape.org/namespaces/inkscape"
   width="143.39725"
   height="123.31564"
   viewBox="0 0 37.940521 32.627264"
   version="1.1"
   id="svg8"
   sodipodi:docname="noisemaker_horn.svg"
   inkscape:version="1.0.2 (e86c870879, 2021-01-15)">
  <defs
     id="defs2" />
  <sodipodi:namedview
     id="base"
     pagecolor="#ffffff"
     bordercolor="#666666"
     borderopacity="1.0"
     inkscape:pageopacity="0.0"
     inkscape:pageshadow="2"
     inkscape:zoom="4.4324753"
     inkscape:cx="9.7726836"
     inkscape:cy="55.347284"
     inkscape:document-units="mm"
     inkscape:current-layer="layer1"
     inkscape:document-rotation="0"
     showgrid="false"
     units="px"
     fit-margin-top="0"
     fit-margin-left="0"
     fit-margin-right="0"
     fit-margin-bottom="0"
     inkscape:window-width="1680"
     inkscape:window-height="993"
     inkscape:window-x="0"
     inkscape:window-y="27"
     inkscape:window-maximized="1" />
  <metadata
     id="metadata5">
    <rdf:RDF>
      <cc:Work
         rdf:about="">
        <dc:format>image/svg+xml</dc:format>
        <dc:type
           rdf:resource="http://purl.org/dc/dcmitype/StillImage" />
        <dc:title></dc:title>
      </cc:Work>
    </rdf:RDF>
  </metadata>
  <g
     inkscape:label="Layer 1"
     inkscape:groupmode="layer"
     id="layer1"
     transform="translate(-59.064123,-137.33717)">
    <g
       id="g971"
       transform="matrix(1.5730452,0,0,1.5730452,-80.651821,-83.793028)">
      <g
         id="g964">
        <g
           id="g958">
          <path
             d="m 104.89404,140.62724 a 0.52260499,0.52260499 0 0 0 -0.27726,0.62751 c 0.87097,2.92673 -3.00206,8.12042 -5.430158,9.82058 l -9.102807,6.37387 -0.30351,-0.43347 a 0.5291775,0.5291775 0 0 0 -0.866964,0.60702 l 2.428151,3.46775 a 0.5291669,0.5291669 0 0 0 0.86694,-0.60703 l -0.30354,-0.43346 1.97582,-1.38347 a 1.9090481,1.9090481 0 0 0 0.36516,1.03632 c 1.00419,1.43415 3.18245,1.64757 4.85537,0.47618 1.672908,-1.17138 2.217388,-3.29127 1.213168,-4.72542 a 1.9090481,1.9090481 0 0 0 -0.848948,-0.69755 l 1.542318,-1.07996 c 2.4281,-1.70015 8.63321,-3.56325 11.08561,-1.74387 a 0.52932541,0.52932541 0 0 0 0.74887,-0.72876 l -7.28443,-10.40325 a 0.5294577,0.5294577 0 0 0 -0.66377,-0.17299 z m -14.203203,17.68889 8.669355,-6.07035 0.60703,0.86696 -8.66934,6.07033 z m 8.756605,-2.25547 c 0.669568,0.95626 0.24213,2.41442 -0.95328,3.25145 -1.19543,0.83705 -2.71184,0.73999 -3.38141,-0.21628 -0.471,-0.67263 -0.12106,-1.20721 1.5603,-2.38452 1.68139,-1.17732 2.30341,-1.32328 2.77439,-0.65065 z m 11.474728,-5.75415 c -3.12285,-0.68311 -7.70191,0.75794 -10.07821,2.21315 l -0.62661,-0.89488 c 2.18015,-1.73536 5.10047,-5.54533 5.52663,-8.71346 z"
             id="path80"
             style="fill:#000000;fill-opacity:1;stroke-width:0.265;stroke-miterlimit:4;stroke-dasharray:none" />
        </g>
        <path
           id="path929"
           style="fill:#e63946;fill-opacity:1;stroke-width:0.151181;stroke-miterlimit:4;stroke-dasharray:none"
           sodipodi:type="inkscape:offset"
           inkscape:radius="0.20630059"
           inkscape:original="M 399.7207 540.37109 L 399.38867 542.00586 C 398.74677 545.16673 397.7515 547.90483 395.87891 551.66406 C 393.17527 557.09164 389.20352 562.7272 384.51758 567.78516 C 383.06014 569.35831 379.54334 572.68253 378.94531 573.05273 C 378.91784 573.06973 379.38927 573.7961 379.99414 574.66602 C 380.599 575.53594 381.14182 576.25091 381.19922 576.25391 C 381.25666 576.25698 381.72199 576.01319 382.23438 575.71289 C 382.74675 575.41259 384.18484 574.67628 385.42969 574.07617 C 391.79073 571.0097 399.21613 568.7681 406.36523 567.75781 C 408.88996 567.40106 416.22935 567.3864 417.875 567.73438 C 418.47301 567.86081 418.96289 567.94111 418.96289 567.91211 C 418.96289 567.88308 414.63361 561.67405 409.3418 554.11523 L 399.7207 540.37109 z "
           d="m 399.72852,540.16406 a 0.20632122,0.20632122 0 0 0 -0.21094,0.16602 l -0.33203,1.63476 c -0.63825,3.14289 -1.62442,5.85787 -3.49219,9.60743 -2.6931,5.40641 -6.65266,11.02771 -11.32617,16.07226 -0.72173,0.77903 -1.96575,2.00434 -3.09961,3.07617 -0.56693,0.53592 -1.10682,1.03375 -1.54102,1.41992 -0.4342,0.38618 -0.78166,0.66888 -0.89062,0.73633 -2.2e-4,1.4e-4 -0.0604,0.0584 -0.0605,0.0586 -1.5e-4,2.2e-4 -0.0273,0.0583 -0.0273,0.0586 -10e-5,3.1e-4 -0.01,0.0426 -0.01,0.043 -3e-5,3.9e-4 -4.6e-4,0.0229 0,0.0312 0.002,0.0335 0.008,0.0461 0.0117,0.0586 0.008,0.0249 0.0154,0.0385 0.0234,0.0547 0.016,0.0324 0.0362,0.0689 0.0625,0.11328 0.0525,0.0887 0.12871,0.20984 0.22461,0.35742 0.19179,0.29517 0.46021,0.69443 0.76367,1.13086 0.30382,0.43696 0.59148,0.83576 0.8125,1.12696 0.11051,0.14559 0.20478,0.26365 0.27734,0.34961 0.0363,0.043 0.0668,0.0785 0.0957,0.10742 0.0145,0.0145 0.0277,0.0263 0.0469,0.041 0.01,0.007 0.0215,0.016 0.0391,0.0254 0.009,0.005 0.0186,0.009 0.0332,0.0137 0.0146,0.005 0.0577,0.0117 0.0586,0.0117 0.0872,0.005 0.0933,-0.0114 0.12109,-0.0215 0.0278,-0.01 0.057,-0.0222 0.0899,-0.0371 0.0657,-0.0298 0.14827,-0.071 0.24414,-0.12109 0.19173,-0.10029 0.43662,-0.23706 0.69531,-0.38868 0.494,-0.28953 1.94027,-1.03047 3.18164,-1.6289 6.3399,-3.05628 13.74817,-5.29169 20.875,-6.29883 1.23533,-0.17455 3.70367,-0.27064 6.05469,-0.27539 2.35101,-0.005 4.62129,0.087 5.38281,0.24805 0.30151,0.0637 0.5753,0.11734 0.77735,0.15039 0.10102,0.0165 0.18437,0.0269 0.24804,0.0332 0.0318,0.003 0.0569,0.007 0.0879,0.006 0.0155,-3.5e-4 0.0311,-0.001 0.0645,-0.01 0.008,-0.002 0.0172,-0.005 0.0293,-0.01 0.0121,-0.005 0.0444,-0.025 0.0449,-0.0254 4.8e-4,-3.5e-4 0.0564,-0.0601 0.0566,-0.0605 2.4e-4,-4e-4 0.0293,-0.10697 0.0293,-0.10742 0,-1.1e-4 -0.0174,-0.0837 -0.0176,-0.084 -1.3e-4,-3e-4 -0.006,-0.0122 -0.008,-0.0156 -0.004,-0.007 -0.006,-0.0102 -0.008,-0.0137 -0.004,-0.007 -0.009,-0.0122 -0.0137,-0.0195 -0.01,-0.0147 -0.0222,-0.0337 -0.0391,-0.0586 -0.0336,-0.0499 -0.082,-0.12289 -0.14648,-0.21679 -0.12905,-0.18782 -0.32009,-0.46218 -0.56445,-0.81446 -0.48874,-0.70454 -1.19446,-1.72025 -2.06641,-2.9707 -1.7439,-2.5009 -4.14895,-5.94316 -6.79492,-9.72266 l -9.6211,-13.74414 a 0.20632122,0.20632122 0 0 0 -0.1621,-0.0879 z"
           transform="matrix(0.26458333,0,0,0.26458333,-0.01752292,-0.00708574)" />
        <path
           id="path931"
           style="fill:#e63946;fill-opacity:1;stroke-width:0.150209;stroke-miterlimit:4;stroke-dasharray:none"
           sodipodi:type="inkscape:offset"
           inkscape:radius="0.35198113"
           inkscape:original="M 375.36328 575.72461 C 375.16618 575.80024 343.32942 598.03254 343.03125 598.30273 C 342.96471 598.36302 343.39549 599.09947 343.98828 599.93945 C 344.58107 600.77942 345.11373 601.44578 345.17383 601.42188 C 345.53773 601.27715 377.57031 578.73636 377.57031 578.625 C 377.57031 578.54981 377.12399 577.84738 376.57812 577.06445 C 375.88908 576.07615 375.51693 575.66561 375.36328 575.72461 z "
           d="m 375.23633,575.39648 c -0.0714,5.8e-4 -1.27365,0.91042 -0.46485,0.30079 -0.24502,0.1677 -0.59772,0.41073 -1.04296,0.71875 -0.89048,0.61602 -2.15149,1.49135 -3.66016,2.54101 -3.01735,2.09933 -7.02448,4.89458 -11.03516,7.69531 -4.01067,2.80074 -8.02471,5.60683 -11.05468,7.73047 -1.51499,1.06183 -2.78366,1.95364 -3.6836,2.58789 -0.44997,0.31713 -0.80812,0.56974 -1.05859,0.74805 -0.12524,0.0892 -0.2225,0.15987 -0.29297,0.21094 -0.0352,0.0255 -0.0639,0.046 -0.0859,0.0625 -0.0221,0.0164 -0.0247,0.0146 -0.0625,0.0488 -0.10522,0.0953 -0.12064,0.20716 -0.12304,0.26757 -0.002,0.0604 0.008,0.0961 0.0156,0.12891 0.0157,0.0657 0.0356,0.11565 0.0605,0.17188 0.05,0.11244 0.12041,0.24169 0.21093,0.39648 0.18105,0.30958 0.44101,0.70995 0.74219,1.13672 0.29975,0.42474 0.58334,0.80521 0.80469,1.08203 0.11068,0.13841 0.20401,0.24943 0.2832,0.33398 0.0396,0.0423 0.0735,0.0775 0.11719,0.11329 0.0219,0.0179 0.0449,0.0374 0.0898,0.0605 0.0225,0.0115 0.0504,0.0233 0.0977,0.0332 0.0236,0.005 0.0526,0.009 0.0879,0.008 0.0353,-0.001 0.12211,-0.025 0.12305,-0.0254 0.0849,-0.0338 0.0705,-0.0351 0.0957,-0.0508 0.0252,-0.0157 0.0548,-0.0342 0.0918,-0.0586 0.074,-0.0487 0.17464,-0.11801 0.30273,-0.20508 0.25618,-0.17414 0.62039,-0.42277 1.07617,-0.73828 0.91158,-0.63101 2.19335,-1.52398 3.72071,-2.59179 3.05471,-2.13563 7.0921,-4.97093 11.11914,-7.80469 4.02704,-2.83376 8.0435,-5.66736 11.05273,-7.79883 1.50462,-1.06573 2.75727,-1.95605 3.63477,-2.58398 0.43875,-0.31397 0.7831,-0.56187 1.01953,-0.73438 0.11821,-0.0863 0.20951,-0.15275 0.27344,-0.20117 0.032,-0.0242 0.0566,-0.0431 0.0781,-0.0605 0.0108,-0.009 0.019,-0.0162 0.0332,-0.0293 0.007,-0.007 0.0155,-0.0131 0.0312,-0.0312 0.0158,-0.0181 0.0879,-0.23394 0.0879,-0.23438 0,-0.0918 -0.0159,-0.11409 -0.0254,-0.14062 -0.01,-0.0265 -0.0195,-0.0458 -0.0293,-0.0664 -0.0196,-0.0412 -0.0407,-0.0841 -0.0684,-0.13281 -0.0554,-0.0975 -0.13085,-0.21886 -0.22266,-0.36328 -0.18361,-0.28886 -0.43354,-0.66354 -0.70898,-1.0586 -0.34845,-0.49978 -0.6171,-0.85628 -0.83594,-1.09766 -0.10942,-0.12068 -0.20426,-0.21367 -0.3125,-0.2871 -0.10824,-0.0734 -0.2721,-0.1628 -0.48242,-0.082 z"
           transform="scale(0.26458333)" />
      </g>
    </g>
  </g>
</svg>
